<svg width="20" height="20" viewBox="0 0 20 20" fill="none" xmlns="http://www.w3.org/2000/svg">
<path d="M2.59499 15.641C2.67174 15.252 2.78735 14.8874 2.91296 14.5833L5.43736 10L7.96175 14.5833C8.06643 14.8874 8.22733 15.252 8.2773 15.641M2.59499 15.641C2.28614 17.2064 2.60663 19.1667 5.43735 19.1667C8.26807 19.1667 8.47837 17.2064 8.2773 15.641M2.59499 15.641H8.2773" stroke="#212121" stroke-linejoin="round"></path>
<path d="M11.762 13.141C11.8387 12.752 11.9543 12.3874 12.08 12.0833L14.6043 7.5L17.1287 12.0833C17.2334 12.3874 17.3943 12.752 17.4443 13.141M11.762 13.141C11.4531 14.7064 11.7736 16.6667 14.6043 16.6667C17.4351 16.6667 17.6454 14.7064 17.4443 13.141M11.762 13.141H17.4443" stroke="#212121" stroke-linejoin="round"></path>
<path d="M1.66699 10.8333L9.67981 8.66319M17.0516 6.66667L9.67981 8.66319M9.67981 2.5V8.66319" stroke="#212121" stroke-linecap="round"></path>
</svg>