<svg width="16" height="16" viewBox="0 0 16 16" fill="none" xmlns="http://www.w3.org/2000/svg">
<path fill-rule="evenodd" clip-rule="evenodd" d="M8.3897 0.891407C8.13636 0.635938 7.88302 0.550781 7.62968 0.550781C7.37633 0.550781 7.12299 0.721095 6.9541 0.891407C6.70076 1.06172 6.61631 1.31719 6.61631 1.57266V5.31956C6.61631 5.57502 6.70076 5.8305 6.86965 6.08597C7.12299 6.25628 7.37633 6.34144 7.62968 6.34144C7.88302 6.42659 8.13636 6.25628 8.3897 6.00081C8.64305 5.8305 8.72751 5.57502 8.72751 5.31956V1.57266C8.72751 1.31719 8.55859 1.06172 8.3897 0.891407ZM0.114116 6.17113C0.198562 5.91565 0.367456 5.66018 0.620795 5.57502C0.789687 5.40472 1.12747 5.40472 1.38081 5.48987L4.92757 6.68207C5.09646 6.76722 5.34979 6.93754 5.43423 7.193C5.60313 7.44848 5.60313 7.78911 5.51868 8.04457C5.43423 8.30005 5.26535 8.47036 5.01201 8.64064H5.012C4.75866 8.72586 4.50533 8.81099 4.25199 8.72586L0.705241 7.44848C0.451902 7.36331 0.283009 7.193 0.114116 6.93754C0.0296697 6.68207 0.0296697 6.42659 0.114116 6.17113ZM2.98507 15.5383C2.73173 15.368 2.64729 15.1126 2.56284 14.8571C2.56284 14.6016 2.56284 14.261 2.73173 14.0907L4.92734 10.9398C5.09623 10.5993 5.34957 10.5142 5.60291 10.4289C5.85625 10.4289 6.10959 10.4289 6.36293 10.5993C6.61626 10.7696 6.70071 11.0251 6.78516 11.2806C6.78516 11.536 6.78516 11.8766 6.61626 12.047L4.42066 15.1978C4.25177 15.4532 3.99843 15.5383 3.74509 15.6235C3.4073 15.7087 3.15396 15.7087 2.98507 15.5383ZM11.5141 15.7087C11.8519 15.7087 12.1053 15.7087 12.2741 15.5383C12.5275 15.368 12.612 15.1126 12.6964 14.8571C12.6964 14.5165 12.6964 14.261 12.5275 14.0907L10.332 10.9398C10.1631 10.6845 9.90975 10.5142 9.65644 10.5142C9.40305 10.4289 9.14966 10.5142 8.89636 10.6845C8.64297 10.8547 8.55859 11.1102 8.47412 11.3657C8.38967 11.6211 8.47412 11.8766 8.64297 12.1321L10.8387 15.2829C11.0075 15.5383 11.2608 15.7087 11.5141 15.7087ZM15.1454 6.17113C15.2297 6.42659 15.2297 6.68207 15.1454 6.93754C15.0609 7.193 14.8075 7.36331 14.5542 7.44848L11.0074 8.72586C10.7541 8.81099 10.5007 8.81099 10.2475 8.64064C9.99421 8.5555 9.82528 8.30005 9.74082 8.04457C9.65644 7.78911 9.65644 7.44848 9.82528 7.27816C9.90975 7.0227 10.163 6.85238 10.4164 6.76722L13.9631 5.48987C14.2164 5.40472 14.4697 5.40472 14.7231 5.57502C14.892 5.66018 15.0609 5.91565 15.1454 6.17113Z" fill="#407AC5"></path>
</svg>