<svg width="39" height="30" viewBox="0 0 39 30" fill="none" xmlns="http://www.w3.org/2000/svg">
<g clip-path="url(#clip0_1201_26590)">
<path d="M7.06816 29.9342V27.9432C7.06816 27.1816 6.59978 26.6829 5.79574 26.6829C5.39372 26.6829 4.95657 26.8143 4.65603 27.2473C4.42184 26.8839 4.08617 26.6829 3.58267 26.6829C3.247 26.6829 2.91133 26.7834 2.64592 27.1468V26.7486H1.94336V29.9342H2.64592V28.1751C2.64592 27.6107 2.94646 27.344 3.41484 27.344C3.88321 27.344 4.1174 27.6416 4.1174 28.1751V29.9342H4.81996V28.1751C4.81996 27.6107 5.15563 27.344 5.58888 27.344C6.05725 27.344 6.29144 27.6416 6.29144 28.1751V29.9342H7.06816ZM17.4895 26.7486H16.3498V25.786H15.6472V26.7486H15.011V27.3787H15.6472V28.8401C15.6472 29.5708 15.9478 29.9999 16.7518 29.9999C17.0523 29.9999 17.388 29.8994 17.6222 29.7679L17.4192 29.1687C17.2163 29.3001 16.9821 29.3349 16.8143 29.3349C16.4786 29.3349 16.3459 29.1339 16.3459 28.8053V27.3787H17.4856V26.7486H17.4895ZM23.4535 26.679C23.0514 26.679 22.7821 26.88 22.6143 27.1429V26.7447H21.9117V29.9303H22.6143V28.1365C22.6143 27.6068 22.8485 27.3053 23.2856 27.3053C23.4183 27.3053 23.5862 27.3401 23.7228 27.371L23.9257 26.7061C23.7852 26.679 23.5862 26.679 23.4535 26.679ZM14.4412 27.0115C14.1055 26.7795 13.6371 26.679 13.1336 26.679C12.3296 26.679 11.7948 27.0772 11.7948 27.7074C11.7948 28.237 12.1969 28.5385 12.8994 28.6352L13.2351 28.67C13.602 28.7357 13.8049 28.8362 13.8049 29.0025C13.8049 29.2344 13.5356 29.4007 13.0673 29.4007C12.5989 29.4007 12.2281 29.2344 11.9939 29.0682L11.6582 29.5978C12.0251 29.8646 12.5286 29.996 13.0321 29.996C13.9689 29.996 14.5075 29.563 14.5075 28.9677C14.5075 28.4032 14.0704 28.1056 13.4029 28.005L13.0673 27.9702C12.7667 27.9354 12.5325 27.8697 12.5325 27.6726C12.5325 27.4406 12.7667 27.3092 13.1375 27.3092C13.5395 27.3092 13.9416 27.4754 14.1445 27.5759L14.4412 27.0115ZM33.1332 26.679C32.7312 26.679 32.4619 26.88 32.294 27.1429V26.7447H31.5915V29.9303H32.294V28.1365C32.294 27.6068 32.5282 27.3053 32.9654 27.3053C33.0981 27.3053 33.2659 27.3401 33.4025 27.371L33.6055 26.7138C33.4689 26.679 33.2698 26.679 33.1332 26.679ZM24.156 28.3414C24.156 29.304 24.8274 29.9999 25.8656 29.9999C26.334 29.9999 26.6696 29.8994 27.0053 29.6365L26.6696 29.072C26.4003 29.2731 26.1349 29.3697 25.8305 29.3697C25.2606 29.3697 24.8586 28.9715 24.8586 28.3414C24.8586 27.7421 25.2606 27.344 25.8305 27.313C26.131 27.313 26.4003 27.4135 26.6696 27.6107L27.0053 27.0463C26.6696 26.7795 26.334 26.6829 25.8656 26.6829C24.8274 26.679 24.156 27.3787 24.156 28.3414ZM30.6547 28.3414V26.7486H29.9522V27.1468C29.718 26.8491 29.3823 26.6829 28.9452 26.6829C28.0396 26.6829 27.3371 27.3787 27.3371 28.3414C27.3371 29.304 28.0396 29.9999 28.9452 29.9999C29.4135 29.9999 29.7492 29.8336 29.9522 29.536V29.9342H30.6547V28.3414ZM28.0748 28.3414C28.0748 27.7769 28.4417 27.313 29.0466 27.313C29.6165 27.313 30.0185 27.746 30.0185 28.3414C30.0185 28.9058 29.6165 29.3697 29.0466 29.3697C28.4456 29.3349 28.0748 28.9019 28.0748 28.3414ZM19.6674 26.679C18.7307 26.679 18.0594 27.344 18.0594 28.3375C18.0594 29.3349 18.7307 29.996 19.7026 29.996C20.1709 29.996 20.6393 29.8646 21.0101 29.563L20.6744 29.0643C20.4051 29.2653 20.0695 29.3968 19.7377 29.3968C19.3005 29.3968 18.8673 29.1958 18.7658 28.6352H21.1428C21.1428 28.5347 21.1428 28.469 21.1428 28.3684C21.174 27.344 20.5691 26.679 19.6674 26.679ZM19.6674 27.2782C20.1046 27.2782 20.4051 27.545 20.4715 28.0398H18.797C18.8634 27.6107 19.1639 27.2782 19.6674 27.2782ZM37.1222 28.3414V25.4883H36.4196V27.1468C36.1855 26.8491 35.8498 26.6829 35.4126 26.6829C34.5071 26.6829 33.8045 27.3787 33.8045 28.3414C33.8045 29.304 34.5071 29.9999 35.4126 29.9999C35.881 29.9999 36.2167 29.8336 36.4196 29.536V29.9342H37.1222V28.3414ZM34.5422 28.3414C34.5422 27.7769 34.9091 27.313 35.5141 27.313C36.084 27.313 36.486 27.746 36.486 28.3414C36.486 28.9058 36.084 29.3697 35.5141 29.3697C34.9091 29.3349 34.5422 28.9019 34.5422 28.3414ZM11.022 28.3414V26.7486H10.3195V27.1468C10.0853 26.8491 9.7496 26.6829 9.31245 26.6829C8.40693 26.6829 7.70437 27.3787 7.70437 28.3414C7.70437 29.304 8.40693 29.9999 9.31245 29.9999C9.78083 29.9999 10.1165 29.8336 10.3195 29.536V29.9342H11.022V28.3414ZM8.41083 28.3414C8.41083 27.7769 8.77773 27.313 9.38271 27.313C9.95257 27.313 10.3546 27.746 10.3546 28.3414C10.3546 28.9058 9.95257 29.3697 9.38271 29.3697C8.77773 29.3349 8.41083 28.9019 8.41083 28.3414Z" fill="white"/>
<path d="M24.7611 2.55469H14.207V21.3356H24.7611V2.55469Z" fill="#FF5A00"/>
<path d="M14.9099 11.9459C14.9099 8.13015 16.721 4.74356 19.5 2.55541C17.4548 0.962629 14.8748 0 12.0606 0C5.39412 0 0 5.34278 0 11.9459C0 18.549 5.39412 23.8918 12.0606 23.8918C14.8748 23.8918 17.4548 22.9291 19.5 21.3363C16.7171 19.1791 14.9099 15.7616 14.9099 11.9459Z" fill="#EB001B"/>
<path d="M39 11.9459C39 18.549 33.6059 23.8918 26.9394 23.8918C24.1252 23.8918 21.5452 22.9291 19.5 21.3363C22.3142 19.1443 24.0901 15.7616 24.0901 11.9459C24.0901 8.13015 22.279 4.74356 19.5 2.55541C21.5413 0.962629 24.1213 0 26.9354 0C33.6059 0 39 5.37758 39 11.9459Z" fill="#F79E1B"/>
</g>
<defs>
<clipPath id="clip0_1201_26590">
<rect width="39" height="30" fill="white"/>
</clipPath>
</defs>
</svg>
