<svg width="24" height="24" viewBox="0 0 24 24" fill="none" xmlns="http://www.w3.org/2000/svg">
<path d="M3.11399 18.7692C3.20608 18.3024 3.34482 17.8649 3.49555 17.5L6.52483 12L9.5541 17.5C9.67971 17.8649 9.8728 18.3024 9.93276 18.7692M3.11399 18.7692C2.74337 20.6477 3.12796 23 6.52482 23C9.92169 23 10.174 20.6477 9.93276 18.7692M3.11399 18.7692H9.93276" stroke="#212121" stroke-width="2" stroke-linejoin="round"></path>
<path d="M14.114 15.7692C14.2061 15.3024 14.3448 14.8649 14.4956 14.5L17.5248 9L20.5541 14.5C20.6797 14.8649 20.8728 15.3024 20.9328 15.7692M14.114 15.7692C13.7434 17.6477 14.128 20 17.5248 20C20.9217 20 21.174 17.6477 20.9328 15.7692M14.114 15.7692H20.9328" stroke="#212121" stroke-width="2" stroke-linejoin="round"></path>
<path d="M2 13L11.6154 10.3958M20.4615 8L11.6154 10.3958M11.6154 3V10.3958" stroke="#212121" stroke-width="2" stroke-linecap="round"></path>
</svg>