<svg width="62" height="20" viewBox="0 0 62 20" fill="none" xmlns="http://www.w3.org/2000/svg">
<g clip-path="url(#clip0_1201_26588)">
<path d="M40.3737 0.03125C35.9759 0.03125 32.0458 2.29597 32.0458 6.48021C32.0458 11.2787 39.016 11.6102 39.016 14.0208C39.016 15.0359 37.8452 15.9445 35.8455 15.9445C33.0076 15.9445 30.8865 14.6749 30.8865 14.6749L29.9789 18.8972C29.9789 18.8972 32.4224 19.9697 35.6664 19.9697C40.4747 19.9697 44.2582 17.5937 44.2582 13.3379C44.2582 8.26743 37.2589 7.94584 37.2589 5.70836C37.2589 4.91323 38.22 4.04201 40.214 4.04201C42.4638 4.04201 44.2993 4.96535 44.2993 4.96535L45.1875 0.887265C45.1875 0.887265 43.1903 0.03125 40.3737 0.03125ZM0.137739 0.339031L0.03125 0.954592C0.03125 0.954592 1.88143 1.29101 3.54781 1.96209C5.69343 2.73162 5.84627 3.1796 6.20762 4.57101L10.1453 19.6523H15.4238L23.5557 0.339031H18.2893L13.0641 13.4702L10.9319 2.3396C10.7363 1.06572 9.74585 0.339031 8.53345 0.339031H0.137739ZM25.6734 0.339031L21.5421 19.6523H26.564L30.6808 0.339031H25.6734ZM53.6825 0.339031C52.4715 0.339031 51.8299 0.983163 51.3591 2.10877L44.0016 19.6523H49.268L50.2869 16.7283H56.7029L57.3224 19.6523H61.9692L57.9154 0.339031H53.6825ZM54.3674 5.55687L55.9284 12.8041H51.7463L54.3674 5.55687Z" fill="white"/>
</g>
<defs>
<clipPath id="clip0_1201_26588">
<rect width="62" height="20" fill="white"/>
</clipPath>
</defs>
</svg>
