<svg width="16" height="16" viewBox="0 0 16 16" fill="none" xmlns="http://www.w3.org/2000/svg">
<path d="M11.4526 1.14281C10.0211 1.30236 8.8421 2.6586 8.8421 4.25416C10.8631 4.57328 12.379 5.92951 12.379 8.24309C12.379 10.4769 10.4421 12.3118 8 12.3118C5.5579 12.3118 3.62106 10.3173 3.62106 7.68464C3.62106 4.09461 6.98948 1.06303 11.2842 1.14281C10.2737 0.664139 9.17893 0.424805 8 0.424805C3.62106 0.424805 0 3.85528 0 8.00375C0 12.1523 3.62106 15.5827 8 15.5827C12.379 15.5827 16 12.1523 16 8.00375C16 4.97217 14.1474 2.41926 11.4526 1.14281Z" fill="#F8484A"></path>
</svg>