<svg width="56" height="42" viewBox="0 0 56 42" fill="none" xmlns="http://www.w3.org/2000/svg">
<g clip-path="url(#clip0_1903_52100)">
<path d="M21.0985 30.2987C19.4188 30.2414 17.9071 29.1542 17.3472 27.4946L17.1792 26.8079L17.0672 26.3502L15.6115 20.2843L15.1636 18.5104L14.4357 15.4775C14.2117 14.4474 13.3159 13.7607 12.3081 13.7607H1.50194L0.494113 32.3587C0.382132 34.6477 1.89387 36.6506 4.07749 37.1084L23.1702 40.9424C25.5778 41.4574 27.9293 39.7979 28.4333 37.3373C28.4333 37.2228 28.4892 37.0512 28.4892 36.9367L29.2171 30.2987H21.0985V30.2987ZM23.1702 35.3344C21.9944 35.3344 21.0425 34.3616 21.0425 33.1599C21.0425 31.9582 21.9944 30.9853 23.1702 30.9853C24.346 30.9853 25.2978 31.9582 25.2978 33.1599C25.2978 34.3616 24.346 35.3344 23.1702 35.3344Z" fill="#1EAD2B"></path>
<path d="M31.7927 6.09324L30.8409 14.9058H20.7626C20.5946 14.9058 20.4267 15.0775 20.4267 15.2492C20.4267 15.3064 20.4267 15.3064 20.4267 15.3064L21.0985 18.1104C21.1545 18.2821 21.2665 18.3393 21.4345 18.3965H30.5049L30.225 20.8H22.1624C21.9944 20.8 21.8264 20.9716 21.8264 21.1433V21.2005L22.4983 24.0045C22.5543 24.1762 22.6663 24.2907 22.8342 24.2907H29.833L29.6091 26.8085H22.6103C22.1064 26.8085 21.6025 26.6369 21.2105 26.3507C20.8186 26.0646 20.5386 25.6641 20.3707 25.149L19.5868 21.83L19.4748 21.4294L17.9071 15.0203L17.7391 14.3908C17.5712 13.5897 17.2352 12.903 16.7313 12.2735C16.1154 11.4724 15.3315 10.9001 14.4357 10.5568C13.8198 10.3279 13.2039 10.2134 12.532 10.2706H1.66992L1.83789 7.12328C1.94987 4.8343 3.68557 3.00311 5.92518 2.83143L26.9775 1.00025C29.4411 0.771348 31.6247 2.65976 31.7927 5.17764C31.8487 5.46377 31.7927 5.74989 31.7927 6.09324Z" fill="#1EAD2B"></path>
<path d="M32.9675 35.392C34.1425 35.392 35.0951 34.4185 35.0951 33.2175C35.0951 32.0165 34.1425 31.043 32.9675 31.043C31.7924 31.043 30.8398 32.0165 30.8398 33.2175C30.8398 34.4185 31.7924 35.392 32.9675 35.392Z" fill="#1EAD2B"></path>
<path d="M29.6094 26.8086H37.336C37.616 26.8086 37.784 27.0375 37.728 27.2092L36.9441 30.0132C36.8881 30.1848 36.7201 30.2993 36.5522 30.2993H29.2734L29.6094 26.8086Z" fill="#1EAD2B"></path>
<path d="M39.1831 21.2004L38.5672 24.0044C38.5112 24.1761 38.3992 24.2905 38.2312 24.2905H29.8887L30.2806 20.7998H38.9031C39.0711 20.7998 39.239 20.9715 39.239 21.1432C39.1831 21.1432 39.1831 21.1432 39.1831 21.2004Z" fill="#1EAD2B"></path>
<path d="M54.9717 14.9059V18.3393H46.7411V31.1576H43.3257V18.3393H39.2944H30.5039V18.1677C30.6159 17.0804 30.7279 15.9359 30.8398 14.8486L35.2631 14.9059H54.9717Z" fill="#1EAD2B"></path>
</g>
<defs>
<clipPath id="clip0_1903_52100">
<rect width="56" height="42" fill="white"></rect>
</clipPath>
</defs>
</svg>