<svg width="243" height="60" viewBox="0 0 243 60" fill="none" xmlns="http://www.w3.org/2000/svg">
<g clip-path="url(#clip0_1201_26537)">
<path d="M31.4884 43.9494C28.9215 43.8636 26.6113 42.2327 25.7557 39.7434L25.499 38.7134L25.3279 38.0267L23.1032 28.928L22.4187 26.267L21.3064 21.7177C20.9641 20.1726 19.5951 19.1426 18.055 19.1426H1.54124L0.00109945 47.0396C-0.170027 50.473 2.14018 53.4773 5.47716 54.164L34.6543 59.9151C38.3335 60.6876 41.9272 58.1984 42.6972 54.5074C42.6972 54.3357 42.7828 54.0782 42.7828 53.9065L43.8951 43.9494H31.4884ZM34.6543 51.5031C32.8574 51.5031 31.4029 50.0439 31.4029 48.2413C31.4029 46.4387 32.8574 44.9795 34.6543 44.9795C36.4511 44.9795 37.9057 46.4387 37.9057 48.2413C37.9057 50.0439 36.4511 51.5031 34.6543 51.5031Z" fill="#1EAD2B"/>
<path d="M47.83 7.63839L46.3754 20.8573H30.974C30.7173 20.8573 30.4606 21.1148 30.4606 21.3723C30.4606 21.4581 30.4606 21.4581 30.4606 21.4581L31.4874 25.6641C31.5729 25.9217 31.7441 26.0075 32.0008 26.0933H45.862L45.4342 29.6985H33.1131C32.8564 29.6985 32.5997 29.956 32.5997 30.2135V30.2993L33.6265 34.5053C33.712 34.7629 33.8831 34.9345 34.1398 34.9345H44.8353L44.493 38.7113H33.7976C33.0275 38.7113 32.2574 38.4538 31.6585 38.0247C31.0596 37.5955 30.6317 36.9946 30.375 36.2221L29.1772 31.2435L29.006 30.6427L26.6103 21.0289L26.3536 20.0847C26.0969 18.883 25.5835 17.853 24.8134 16.9088C23.8722 15.7071 22.6743 14.8487 21.3053 14.3337C20.3641 13.9903 19.4229 13.8186 18.3962 13.9045H1.79688L2.05357 9.18345C2.22469 5.74998 4.87716 3.0032 8.29969 2.74569L40.4715 -0.00109496C44.2363 -0.344443 47.5733 2.48818 47.83 6.265C47.9155 6.69418 47.83 7.12337 47.83 7.63839Z" fill="#1EAD2B"/>
<path d="M49.6264 51.5881C51.4221 51.5881 52.8778 50.1277 52.8778 48.3263C52.8778 46.5248 51.4221 45.0645 49.6264 45.0645C47.8307 45.0645 46.375 46.5248 46.375 48.3263C46.375 50.1277 47.8307 51.5881 49.6264 51.5881Z" fill="#1EAD2B"/>
<path d="M44.4938 38.7129H56.3016C56.7294 38.7129 56.9861 39.0562 56.9005 39.3137L55.7026 43.5198C55.6171 43.7773 55.3604 43.9489 55.1037 43.9489H43.9805L44.4938 38.7129Z" fill="#1EAD2B"/>
<path d="M59.1254 30.3001L58.1842 34.5061C58.0986 34.7636 57.9275 34.9353 57.6708 34.9353H44.9219L45.5208 29.6992H58.6976C58.9543 29.6992 59.211 29.9567 59.211 30.2142C59.1254 30.2142 59.1254 30.2142 59.1254 30.3001Z" fill="#1EAD2B"/>
<path d="M83.2525 20.8573V26.0075H70.6747V45.235H65.4554V26.0075H59.2948H45.8613V25.75C46.0325 24.1191 46.2036 22.4024 46.3747 20.7715L53.1342 20.8573H83.2525Z" fill="white"/>
<path d="M103.447 20.8594C110.121 20.8594 115.597 26.3529 115.597 33.0482C115.597 39.7435 110.121 45.2371 103.447 45.2371H97.6285C94.3771 45.3229 91.2968 43.9495 89.0722 41.6319C86.762 39.4002 85.4785 36.31 85.4785 33.0482C85.4785 26.3529 90.869 20.8594 97.6285 20.8594H103.447ZM109.008 37.2542C110.891 34.765 110.891 31.3315 109.008 28.8422C108.324 27.9838 107.468 27.2971 106.527 26.7821C105.586 26.2671 104.474 26.0096 103.361 26.0096H97.5429C93.6926 26.0096 90.6123 29.0997 90.6123 32.9624V33.0482C90.6123 34.5074 91.1257 35.9667 91.9813 37.1684C92.5803 38.0268 93.4359 38.7135 94.3771 39.2285C95.3183 39.7435 96.4306 40.001 97.5429 40.001H103.361C104.474 40.001 105.586 39.7435 106.527 39.2285C107.554 38.7993 108.409 38.1126 109.008 37.2542Z" fill="white"/>
<path d="M147.512 20.8594L135.705 45.2371H129.116L117.309 20.8594H123.127L132.453 40.001L141.78 20.8594H147.512Z" fill="white"/>
<path d="M166.678 20.8594L179.512 45.1512H173.694L169.929 38.1984H158.806L155.127 45.1512H149.309L162.143 20.8594H166.678ZM161.63 33.0482H167.277L164.453 27.7263L161.63 33.0482Z" fill="white"/>
<path d="M201.845 35.6233L211.685 45.2371H204.326L194.486 35.6233H186.786V45.2371H181.566V20.8594H204.412C208.433 20.8594 211.77 24.207 211.77 28.2414C211.77 32.2757 208.433 35.6233 204.412 35.6233H201.845ZM186.7 30.4731H204.326C205.524 30.4731 206.551 29.5289 206.551 28.3272C206.551 27.1255 205.61 26.0954 204.326 26.0954H186.7V30.4731Z" fill="white"/>
<path d="M243.001 20.8594L230.937 33.6491V45.2371H225.803V33.7349L213.738 20.8594H220.84L228.37 28.928L235.899 20.8594H243.001Z" fill="white"/>
</g>
<defs>
<clipPath id="clip0_1201_26537">
<rect width="243" height="60" fill="white"/>
</clipPath>
</defs>
</svg>
