<svg width="122" height="30" viewBox="0 0 122 30" fill="none" xmlns="http://www.w3.org/2000/svg">
  <g clip-path="url(#clip0_1274_47733)">
  <path d="M15.809 21.9742C14.5203 21.9313 13.3604 21.1159 12.9309 19.8712L12.802 19.3562L12.7161 19.0129L11.5992 14.4635L11.2555 13.133L10.697 10.8584C10.5252 10.0858 9.83789 9.5708 9.06465 9.5708H0.773807L0.000568061 23.5193C-0.0853474 25.236 1.07451 26.7382 2.74986 27.0815L17.3985 29.9571C19.2456 30.3433 21.0499 29.0987 21.4365 27.2532C21.4365 27.1674 21.4794 27.0386 21.4794 26.9528L22.0379 21.9742H15.809ZM17.3985 25.7511C16.4963 25.7511 15.7661 25.0214 15.7661 24.1202C15.7661 23.2189 16.4963 22.4893 17.3985 22.4893C18.3006 22.4893 19.0308 23.2189 19.0308 24.1202C19.0308 25.0214 18.3006 25.7511 17.3985 25.7511Z" fill="white"></path>
  <path d="M24.0136 3.81968L23.2833 10.4291H15.5509C15.4221 10.4291 15.2932 10.5579 15.2932 10.6866C15.2932 10.7296 15.2932 10.7296 15.2932 10.7296L15.8087 12.8326C15.8516 12.9613 15.9376 13.0042 16.0664 13.0472H23.0256L22.8108 14.8497H16.6249C16.496 14.8497 16.3671 14.9785 16.3671 15.1072V15.1502L16.8826 17.2532C16.9256 17.3819 17.0115 17.4678 17.1404 17.4678H22.5101L22.3383 19.3562H16.9685C16.5819 19.3562 16.1953 19.2274 15.8946 19.0128C15.5939 18.7982 15.3791 18.4978 15.2502 18.1115L14.6488 15.6223L14.5629 15.3218L13.3601 10.515L13.2312 10.0429C13.1023 9.442 12.8446 8.92698 12.458 8.45488C11.9854 7.85402 11.384 7.42483 10.6967 7.16732C10.2242 6.99565 9.75164 6.90981 9.23615 6.95273H0.902344L1.03122 4.59222C1.11713 2.87548 2.44882 1.50209 4.16713 1.37333L20.3192 -5.91995e-05C22.2094 -0.171733 23.8847 1.24458 24.0136 3.13299C24.0566 3.34758 24.0136 3.56217 24.0136 3.81968Z" fill="white"></path>
  <path d="M24.9156 25.794C25.8171 25.794 26.548 25.0638 26.548 24.1631C26.548 23.2624 25.8171 22.5322 24.9156 22.5322C24.0141 22.5322 23.2832 23.2624 23.2832 24.1631C23.2832 25.0638 24.0141 25.794 24.9156 25.794Z" fill="white"></path>
  <path d="M22.3378 19.3564H28.266C28.4808 19.3564 28.6097 19.5281 28.5667 19.6569L27.9653 21.7599C27.9223 21.8886 27.7935 21.9745 27.6646 21.9745H22.0801L22.3378 19.3564Z" fill="white"></path>
  <path d="M29.6837 15.15L29.2112 17.253C29.1682 17.3818 29.0823 17.4676 28.9534 17.4676H22.5527L22.8534 14.8496H29.4689C29.5978 14.8496 29.7267 14.9784 29.7267 15.1071C29.6837 15.1071 29.6837 15.1071 29.6837 15.15Z" fill="white"></path>
  <path d="M41.7979 10.4291V13.0043H35.4831V22.618H32.8627V13.0043H29.7698H23.0254V12.8755C23.1113 12.06 23.1972 11.2017 23.2831 10.3862L26.6768 10.4291H41.7979Z" fill="white"></path>
  <path d="M51.9362 10.4292C55.2869 10.4292 58.0362 13.176 58.0362 16.5236C58.0362 19.8713 55.2869 22.618 51.9362 22.618H49.015C47.3826 22.661 45.8362 21.9743 44.7193 20.8155C43.5594 19.6996 42.915 18.1545 42.915 16.5236C42.915 13.176 45.6214 10.4292 49.015 10.4292H51.9362ZM54.7284 18.6266C55.6735 17.382 55.6735 15.6653 54.7284 14.4206C54.3848 13.9914 53.9552 13.6481 53.4826 13.3906C53.0101 13.1331 52.4517 13.0043 51.8932 13.0043H48.9721C47.039 13.0043 45.4925 14.5494 45.4925 16.4807V16.5236C45.4925 17.2532 45.7502 17.9828 46.1798 18.5837C46.4805 19.0129 46.9101 19.3562 47.3826 19.6138C47.8552 19.8713 48.4136 20 48.9721 20H51.8932C52.4517 20 53.0101 19.8713 53.4826 19.6138C53.9981 19.3992 54.4277 19.0558 54.7284 18.6266Z" fill="white"></path>
  <path d="M74.0596 10.4292L68.1314 22.618H64.8237L58.8955 10.4292H61.8166L66.499 20L71.1814 10.4292H74.0596Z" fill="white"></path>
  <path d="M83.6814 10.4292L90.125 22.5751H87.2039L85.3138 19.0987H79.7292L77.8821 22.5751H74.9609L81.4046 10.4292H83.6814ZM81.1468 16.5236H83.9821L82.5645 13.8627L81.1468 16.5236Z" fill="white"></path>
  <path d="M101.337 17.8112L106.277 22.618H102.583L97.6429 17.8112H93.7767V22.618H91.1562V10.4292H102.626C104.645 10.4292 106.32 12.103 106.32 14.1202C106.32 16.1374 104.645 17.8112 102.626 17.8112H101.337ZM93.7337 15.2361H102.583C103.184 15.2361 103.7 14.764 103.7 14.1631C103.7 13.5622 103.227 13.0472 102.583 13.0472H93.7337V15.2361Z" fill="white"></path>
  <path d="M122 10.4292L115.943 16.8241V22.618H113.366V16.867L107.309 10.4292H110.874L114.654 14.4635L118.435 10.4292H122Z" fill="white"></path>
  </g>
  <defs>
  <clipPath id="clip0_1274_47733">
  <rect width="122" height="30" fill="white"></rect>
  </clipPath>
  </defs>
  </svg>