<svg width="160" height="42" viewBox="0 0 160 42" fill="none" xmlns="http://www.w3.org/2000/svg">
<g clip-path="url(#clip0_1156_22054)">
<path d="M21.0985 30.2987C19.4188 30.2414 17.9071 29.1542 17.3472 27.4946L17.1792 26.8079L17.0672 26.3502L15.6115 20.2843L15.1636 18.5104L14.4357 15.4775C14.2117 14.4474 13.3159 13.7607 12.3081 13.7607H1.50194L0.494113 32.3587C0.382132 34.6477 1.89387 36.6506 4.07749 37.1084L23.1702 40.9424C25.5778 41.4574 27.9293 39.7979 28.4333 37.3373C28.4333 37.2228 28.4892 37.0512 28.4892 36.9367L29.2171 30.2987H21.0985V30.2987ZM23.1702 35.3344C21.9944 35.3344 21.0425 34.3616 21.0425 33.1599C21.0425 31.9582 21.9944 30.9853 23.1702 30.9853C24.346 30.9853 25.2978 31.9582 25.2978 33.1599C25.2978 34.3616 24.346 35.3344 23.1702 35.3344Z" fill="#1EAD2B"></path>
<path d="M31.7907 6.09324L30.8389 14.9058H20.7607C20.5927 14.9058 20.4247 15.0775 20.4247 15.2492C20.4247 15.3064 20.4247 15.3064 20.4247 15.3064L21.0966 18.1104C21.1526 18.2821 21.2646 18.3393 21.4325 18.3965H30.503L30.223 20.8H22.1604C21.9924 20.8 21.8245 20.9716 21.8245 21.1433V21.2005L22.4964 24.0045C22.5523 24.1762 22.6643 24.2907 22.8323 24.2907H29.8311L29.6071 26.8085H22.6083C22.1044 26.8085 21.6005 26.6369 21.2086 26.3507C20.8166 26.0646 20.5367 25.6641 20.3687 25.149L19.5849 21.83L19.4729 21.4294L17.9051 15.0203L17.7372 14.3908C17.5692 13.5897 17.2333 12.903 16.7294 12.2735C16.1135 11.4724 15.3296 10.9001 14.4338 10.5568C13.8179 10.3279 13.202 10.2134 12.5301 10.2706H1.66797L1.83594 7.12328C1.94792 4.8343 3.68362 3.00311 5.92323 2.83143L26.9756 1.00025C29.4391 0.771348 31.6228 2.65976 31.7907 5.17764C31.8467 5.46377 31.7907 5.74989 31.7907 6.09324Z" fill="#1EAD2B"></path>
<path d="M32.9675 35.392C34.1425 35.392 35.0951 34.4185 35.0951 33.2175C35.0951 32.0165 34.1425 31.043 32.9675 31.043C31.7924 31.043 30.8398 32.0165 30.8398 33.2175C30.8398 34.4185 31.7924 35.392 32.9675 35.392Z" fill="#1EAD2B"></path>
<path d="M29.6094 26.8086H37.336C37.616 26.8086 37.784 27.0375 37.728 27.2092L36.9441 30.0132C36.8881 30.1848 36.7201 30.2993 36.5522 30.2993H29.2734L29.6094 26.8086Z" fill="#1EAD2B"></path>
<path d="M39.185 21.2004L38.5691 24.0044C38.5131 24.1761 38.4011 24.2905 38.2332 24.2905H29.8906L30.2826 20.7998H38.9051C39.073 20.7998 39.241 20.9715 39.241 21.1432C39.185 21.1432 39.185 21.1432 39.185 21.2004Z" fill="#1EAD2B"></path>
<path d="M54.9717 14.9059V18.3393H46.7411V31.1576H43.3257V18.3393H39.2944H30.5039V18.1677C30.6159 17.0804 30.7279 15.9359 30.8398 14.8486L35.2631 14.9059H54.9717Z" fill="#212121"></path>
<path d="M68.1876 14.9053C72.5549 14.9053 76.1383 18.5676 76.1383 23.0312C76.1383 27.4947 72.5549 31.1571 68.1876 31.1571H64.3803C62.2527 31.2143 60.237 30.2987 58.7813 28.7536C57.2695 27.2658 56.4297 25.2057 56.4297 23.0312C56.4297 18.5676 59.9571 14.9053 64.3803 14.9053H68.1876ZM71.827 25.8352C73.0588 24.1757 73.0588 21.8867 71.827 20.2272C71.3791 19.6549 70.8192 19.1971 70.2033 18.8538C69.5874 18.5104 68.8595 18.3387 68.1316 18.3387H64.3243C61.8047 18.3387 59.7891 20.3988 59.7891 22.9739V23.0312C59.7891 24.004 60.125 24.9768 60.6849 25.7779C61.0769 26.3502 61.6368 26.808 62.2527 27.1513C62.8686 27.4947 63.5964 27.6664 64.3243 27.6664H68.1316C68.8595 27.6664 69.5874 27.4947 70.2033 27.1513C70.8752 26.8652 71.4351 26.4074 71.827 25.8352Z" fill="#212121"></path>
<path d="M97.0224 14.9053L89.2957 31.1571H84.9845L77.2578 14.9053H81.0651L87.1681 27.6664L93.271 14.9053H97.0224V14.9053Z" fill="#212121"></path>
<path d="M109.561 14.9053L117.96 31.0998H114.153L111.689 26.4646H104.41L102.003 31.0998H98.1953L106.594 14.9053H109.561ZM106.258 23.0312H109.953L108.106 19.4832L106.258 23.0312Z" fill="#212121"></path>
<path d="M132.574 24.7479L139.013 31.1571H134.198L127.759 24.7479H122.72V31.1571H119.305V14.9053H134.254C136.886 14.9053 139.069 17.137 139.069 19.8266C139.069 22.5161 136.886 24.7479 134.254 24.7479H132.574ZM122.664 21.3144H134.198C134.982 21.3144 135.654 20.685 135.654 19.8838C135.654 19.0827 135.038 18.396 134.198 18.396H122.664V21.3144Z" fill="#212121"></path>
<path d="M159.508 14.9053L151.613 23.4317V31.1571H148.254V23.489L140.359 14.9053H145.007L149.934 20.2844L154.861 14.9053H159.508Z" fill="#212121"></path>
</g>
<defs>
<clipPath id="clip0_1156_22054">
<rect width="160" height="42" fill="white"></rect>
</clipPath>
</defs>
</svg>